<?xml version="1.0" standalone="no"?>
<!DOCTYPE svg PUBLIC "-//W3C//DTD SVG 20010904//EN"
 "http://www.w3.org/TR/2001/REC-SVG-20010904/DTD/svg10.dtd">
<svg version="1.0" xmlns="http://www.w3.org/2000/svg"
 width="360.000000pt" height="360.000000pt" viewBox="0 0 360.000000 360.000000"
 preserveAspectRatio="xMidYMid meet">
<metadata>
Created by potrace 1.11, written by Peter Selinger 2001-2013
</metadata>
<g transform="translate(0.000000,360.000000) scale(0.100000,-0.100000)"
fill="#000000" stroke="none">
<path d="M0 1800 l0 -1800 1800 0 1800 0 0 1800 0 1800 -1800 0 -1800 0 0
-1800z m1203 1421 c115 -30 191 -74 277 -161 55 -54 85 -96 112 -150 64 -131
71 -119 -93 -163 -77 -21 -147 -41 -153 -43 -8 -3 -18 12 -25 38 -34 112 -92
187 -177 229 -61 30 -67 31 -167 27 -92 -3 -111 -7 -163 -33 -77 -40 -116
-100 -122 -189 -5 -82 11 -139 55 -187 47 -52 119 -88 268 -134 251 -76 312
-98 386 -136 189 -98 269 -230 269 -441 0 -108 -14 -175 -52 -256 -59 -125
-195 -228 -365 -274 -113 -31 -383 -31 -496 0 -185 51 -330 166 -405 322 -66
136 -72 125 103 180 l150 47 21 -57 c46 -128 120 -211 223 -251 43 -17 77 -22
151 -23 221 0 338 84 348 252 12 182 -61 244 -413 351 -369 113 -501 216 -551
428 -22 92 -15 237 15 315 64 167 240 294 453 327 92 14 260 5 351 -18z m1147
-1711 l0 -800 435 0 435 0 0 -130 0 -130 -600 0 -600 0 0 923 c0 508 3 927 7
930 3 4 78 7 165 7 l158 0 0 -800z"/>
</g>
</svg>
